# xmcd
#
# Track frame offsets:
#	150
#	13185
#	27205
#	44917
#	62257
#	79202
#	92897
#	107290
#	125352
#	140055
#	158165
#	170477
#	188460
#	205955
#	219515
#	237385
#	255842
#	269145
#	280667
#	294410
#
# Disc length: 4149 seconds
#
# Revision: 0
# Processed by: cddbd v1.5.1PL0 Copyright (c) Steve Scherf et al.
# Submitted via: audiograbber 1.83.01
#
DISCID=1f103314
DTITLE=Music Mastero Country Club Pack 1 [CD3 of 5) (Various) - MMCOU103
DYEAR=1900
DGENRE=Karaoke
TTITLE0=GeorgeStrait - Blue Clear Sky
TTITLE1=Pam Tillis - Mi Vida Loca
TTITLE2=David Kersh - Another You
TTITLE3=John Berry - Your Love Amazes Me
TTITLE4=Confederate Railroad, The - Daddy Was Never The Cadillac Kind
TTITLE5=Hank Williams Jr - Born To Boogie
TTITLE6=Mindy McCready - Guys Do It All The Time
TTITLE7=Collin Raye - Love Me
TTITLE8=Alabama - Jukebox In My Mind
TTITLE9=Suzy Bogguss - Letting Go
TTITLE10=Paul Jefferson - Check Please
TTITLE11=Mindy McCready - Maybe He'll Notice Her Now
TTITLE12=Toby Keith - Me Too
TTITLE13=Janie Frickie - He's A Heartache
TTITLE14=Wynonna Judd - No One Else On Earth
TTITLE15=John Michael Montgomery - I Love The Way You Love Me
TTITLE16=Tanya Tucker - San Antonio Stroll
TTITLE17=Alan Jackson - Tall Tall Trees
TTITLE18=Trisha Yearwood - Everybody Knows
TTITLE19=Joe Diffie - Bigger Than The Beatles
EXTD=
EXTT0=
EXTT1=
EXTT2=
EXTT3=
EXTT4=
EXTT5=
EXTT6=
EXTT7=
EXTT8=
EXTT9=
EXTT10=
EXTT11=
EXTT12=
EXTT13=
EXTT14=
EXTT15=
EXTT16=
EXTT17=
EXTT18=
EXTT19=
PLAYORDER=
